<svg xmlns="http://www.w3.org/2000/svg" xmlns:xlink="http://www.w3.org/1999/xlink" xmlns:lucid="lucid" width="412" height="728"><g transform="translate(-100 -20)" lucid:page-tab-id="0_0"><path d="M0 0h1760v1360H0z" fill="#fff"/><g filter="url(#a)"><path d="M180 42c0-1.1.9-2 2-2h236c1.1 0 2 .9 2 2v196c0 1.1-.9 2-2 2H182c-1.1 0-2-.9-2-2z" fill="#fff"/><use xlink:href="#b" transform="matrix(1,0,0,1,180,193) translate(52.62358447265625 28.05751953125)"/><use xlink:href="#c" transform="matrix(1,0,0,1,180,193) translate(97.99694677734375 28.05751953125)"/><use xlink:href="#d" transform="matrix(1,0,0,1,180,193) translate(135.68763330078127 28.05751953125)"/></g><g filter="url(#e)"><path d="M256 602c0-1.1.9-2 2-2h84c1.1 0 2 .9 2 2v124c0 1.1-.9 2-2 2h-84c-1.1 0-2-.9-2-2z" fill="#fff"/><path d="M312 641c2.5 0 4.6-.88 6.36-2.64 1.76-1.75 2.64-3.87 2.64-6.36 0-2.5-.88-4.6-2.64-6.36-1.75-1.76-3.87-2.64-6.36-2.64-2.5 0-4.6.88-6.36 2.64-1.76 1.75-2.64 3.87-2.64 6.36 0 2.5.88 4.6 2.64 6.36 1.75 1.76 3.87 2.64 6.36 2.64zm-24 0c2.5 0 4.6-.88 6.36-2.64 1.76-1.75 2.64-3.87 2.64-6.36 0-2.5-.88-4.6-2.64-6.36-1.75-1.76-3.87-2.64-6.36-2.64-2.5 0-4.6.88-6.36 2.64-1.76 1.75-2.64 3.87-2.64 6.36 0 2.5.88 4.6 2.64 6.36 1.75 1.76 3.87 2.64 6.36 2.64zm0 6c-7 0-21 3.5-21 10.5v7.5h42v-7.5c0-7-14-10.5-21-10.5zm24 0c-.87 0-1.86.06-2.9.15 3.47 2.52 5.9 5.9 5.9 10.35v7.5h18v-7.5c0-7-14-10.5-21-10.5zm0 0" fill="#757575"/><use xlink:href="#f" transform="matrix(1,0,0,1,256,681) translate(27.0134736328125 28.05751953125)"/></g><g filter="url(#e)"><path d="M256 442c0-1.1.9-2 2-2h84c1.1 0 2 .9 2 2v124c0 1.1-.9 2-2 2h-84c-1.1 0-2-.9-2-2z" fill="#fff"/><path d="M324 502c1.65 0 3.07-.6 4.25-1.76 1.17-1.17 1.75-2.58 1.75-4.24v-30c0-1.66-.58-3.07-1.75-4.24-1.18-1.17-2.6-1.76-4.25-1.76h-48c-1.65 0-3.07.6-4.25 1.76-1.17 1.17-1.75 2.58-1.75 4.24v30c0 1.66.58 3.07 1.75 4.24 1.18 1.17 2.6 1.76 4.25 1.76h-12v6h72v-6zm-48-36h48v30h-48z" fill="#757575"/><use xlink:href="#g" transform="matrix(1,0,0,1,256,521) translate(17.579408203125 28.05751953125)"/></g><g filter="url(#e)"><path d="M210 62c0-1.1.9-2 2-2h84c1.1 0 2 .9 2 2v124c0 1.1-.9 2-2 2h-84c-1.1 0-2-.9-2-2z" fill="#fff"/><path d="M224 116v12h60v-12zm12 9h-6v-6h6zM224 80v12h60V80zm12 9h-6v-6h6zM224 98v12h60V98zm12 9h-6v-6h6z" fill="#757575"/><use xlink:href="#h" transform="matrix(1,0,0,1,210,141) translate(21.10497509765625 28.05751953125)"/></g><g filter="url(#e)"><path d="M310 62c0-1.1.9-2 2-2h84c1.1 0 2 .9 2 2v124c0 1.1-.9 2-2 2h-84c-1.1 0-2-.9-2-2z" fill="#fff"/><path d="M359.85 96.9h-11.7c-.35 0-.65.13-.9.37-.23.24-.35.54-.35.88v11.7c0 .34.12.63.36.87s.54.36.88.37h11.7c.35-.02.65-.14.9-.38.23-.24.35-.53.35-.87v-11.7c0-.34-.13-.64-.37-.88s-.54-.36-.88-.36z" fill="#757575"/><path d="M378.37 95.96c.3 0 .57-.1.8-.32.2-.22.32-.5.32-.8v-1.8c0-.3-.12-.55-.34-.77-.22-.2-.48-.32-.78-.33h-5.7v-5.36c0-.34-.13-.63-.37-.87-.23-.23-.52-.36-.86-.36h-5.34v-5.7c0-.22-.06-.4-.16-.58-.1-.18-.25-.32-.42-.4-.18-.1-.38-.16-.58-.16h-1.8c-.3 0-.56.12-.78.34-.22.2-.32.48-.32.8v5.7H356v-5.7c-.02-.32-.12-.58-.34-.8-.22-.2-.48-.32-.78-.33h-1.8c-.3.03-.54.14-.75.36-.2.2-.32.46-.32.77v5.7h-5.96v-5.7c0-.3-.1-.57-.33-.78-.2-.22-.47-.33-.77-.34h-1.87c-.3.02-.57.13-.8.35-.2.22-.32.48-.32.8v5.7h-5.38c-.34 0-.63.13-.87.37-.25.24-.38.53-.38.87v5.3h-5.7c-.2 0-.4.06-.56.17-.18.1-.32.24-.42.42-.1.17-.14.35-.13.55v1.8c0 .2.05.38.15.56.1.18.24.3.4.4.18.12.37.16.57.16h5.7v5.97h-5.7c-.3 0-.56.12-.78.33-.22.2-.33.48-.33.8v1.8c0 .3.1.58.33.8.22.22.5.32.8.33h5.68v5.96h-5.68c-.3 0-.57.1-.8.32-.2.22-.3.48-.3.8v1.86c0 .3.1.57.3.8.23.2.5.32.8.32h5.7v5.32c0 .34.12.63.36.87s.53.37.87.37h5.34v5.7c0 .22.03.42.14.6.1.18.25.33.43.43.18.1.38.15.6.15h1.8c.3 0 .57-.12.8-.34.2-.2.32-.48.32-.78v-5.72h5.96v5.7c0 .32.1.58.33.8.2.22.47.33.78.33h1.82c.3-.02.55-.13.77-.35.2-.2.3-.47.32-.77v-5.72h5.96v5.7c0 .32.1.58.32.8.22.22.5.33.8.33h1.86c.3 0 .58-.12.8-.34.2-.22.32-.48.33-.8v-5.7h5.34c.35 0 .64-.13.88-.37.24-.25.37-.54.37-.88v-5.33h5.72c.2 0 .4-.06.57-.16.18-.1.32-.24.4-.42.1-.18.16-.38.15-.58v-1.78c0-.3-.12-.57-.34-.8-.22-.2-.48-.3-.78-.3h-5.7v-6.07h5.7c.3 0 .56-.12.78-.34.22-.22.33-.48.33-.8v-1.77c-.02-.3-.13-.57-.35-.78-.22-.2-.48-.3-.78-.3h-5.7v-5.98h5.7zm-9.9 22.52h-28.95V89.53h28.96v28.95z" fill="#757575"/><use xlink:href="#i" transform="matrix(1,0,0,1,310,141) translate(30.92968505859375 28.05751953125)"/></g><path d="M300 600v-32" stroke="#000" stroke-width="2" fill="none"/><path/><path/><g filter="url(#j)"><path d="M120 322c0-1.1.9-2 2-2h148c1.1 0 2 .9 2 2v48c0 1.1-.9 2-2 2H122c-1.1 0-2-.9-2-2z" fill="#fff"/><use xlink:href="#k" transform="matrix(1,0,0,1,120,325) translate(17.21776416015625 28.05751953125)"/><use xlink:href="#l" transform="matrix(1,0,0,1,120,325) translate(56.00876611328125 28.05751953125)"/><use xlink:href="#m" transform="matrix(1,0,0,1,120,325) translate(78.07367138671876 28.05751953125)"/></g><g filter="url(#j)"><path d="M340 322c0-1.1.9-2 2-2h148c1.1 0 2 .9 2 2v48c0 1.1-.9 2-2 2H342c-1.1 0-2-.9-2-2z" fill="#fff"/><use xlink:href="#n" transform="matrix(1,0,0,1,340,325) translate(19.099368652343756 28.05751953125)"/><use xlink:href="#o" transform="matrix(1,0,0,1,340,325) translate(65.87254052734374 28.05751953125)"/></g><path d="M300 440v-34H196v-34" stroke="#000" stroke-width="2" fill="none"/><path/><path/><path d="M300 440v-34h116v-34" stroke="#000" stroke-width="2" fill="none"/><path/><path/><path d="M416 320v-40H300v-40" stroke="#000" stroke-width="2" fill="none"/><path/><path/><defs><path d="M730-137c145 0 253-29 323-105v-327H716v-156h528v534C1148-51 964 20 729 20c-394 0-598-279-607-678v-127c-5-410 194-690 585-691 310-1 499 171 537 447h-192c-36-193-151-289-344-289-285 0-393 220-393 528v119c-5 296 140 534 415 534" id="p"/><path d="M584 20C278 26 81-227 91-551c10-320 175-545 491-551 308-5 503 247 494 573-9 322-175 543-492 549zm-2-970c-208 0-305 185-305 421 0 216 106 398 307 398 211 0 307-186 307-420 0-214-109-399-309-399" id="q"/><path d="M521 20C240 20 96-239 96-550c0-303 147-552 427-552 132 0 235 47 309 140l9-120h169V-26c4 277-183 454-459 452-165-1-334-81-400-187l96-111c79 98 176 147 291 147 180 1 288-109 286-290v-93C750-23 649 20 521 20zm48-965c-209 0-287 178-287 416 0 217 86 392 285 392 117 0 202-53 257-159v-494c-57-103-142-155-255-155" id="r"/><path d="M341 0H156v-1536h185V0" id="s"/><path d="M599-131c141 0 220-65 285-146l113 88C906-50 770 20 589 20 281 21 93-214 93-545c0-223 93-397 233-485 74-48 154-72 240-72 300 2 449 218 445 537v77H278c0 197 129 357 321 357zm227-509c-3-180-88-310-260-310-170 0-264 140-282 310h542" id="t"/><g id="b"><use transform="matrix(0.0065107421875,0,0,0.0065107421875,0,0)" xlink:href="#p"/><use transform="matrix(0.0065107421875,0,0,0.0065107421875,9.0824853515625,0)" xlink:href="#q"/><use transform="matrix(0.0065107421875,0,0,0.0065107421875,16.6870322265625,0)" xlink:href="#q"/><use transform="matrix(0.0065107421875,0,0,0.0065107421875,24.2915791015625,0)" xlink:href="#r"/><use transform="matrix(0.0065107421875,0,0,0.0065107421875,31.772421875,0)" xlink:href="#s"/><use transform="matrix(0.0065107421875,0,0,0.0065107421875,35.0082607421875,0)" xlink:href="#t"/></g><path d="M688-137c238 0 323-102 359-325h193c-32 297-228 482-552 482-361 0-569-299-569-680 0-197 8-360 73-497 88-186 257-317 513-319 316-2 509 195 535 488h-193c-31-212-118-330-342-330-272 0-397 224-393 523v141c-3 282 115 517 376 517" id="u"/><path d="M491 20c-241-1-355-148-355-398v-704h185v699c0 164 67 246 200 246 141 0 235-53 282-158v-787h185V0H812l-4-107C736-22 630 20 491 20" id="v"/><path d="M520 20C244 20 95-247 95-550c0-298 151-550 427-552 127 0 227 43 301 130v-564h185V0H838l-9-116C755-25 652 20 520 20zm48-965c-210 0-288 177-288 416 0 218 87 392 286 392 117 0 203-53 257-158v-497c-55-102-140-153-255-153" id="w"/><g id="c"><use transform="matrix(0.0065107421875,0,0,0.0065107421875,0,0)" xlink:href="#u"/><use transform="matrix(0.0065107421875,0,0,0.0065107421875,8.678819335937499,0)" xlink:href="#s"/><use transform="matrix(0.0065107421875,0,0,0.0065107421875,11.914658203124999,0)" xlink:href="#q"/><use transform="matrix(0.0065107421875,0,0,0.0065107421875,19.519205078124997,0)" xlink:href="#v"/><use transform="matrix(0.0065107421875,0,0,0.0065107421875,26.869833007812492,0)" xlink:href="#w"/></g><path d="M1216-1011c-1 297-202 441-512 441H361V0H169v-1456h537c297-6 510 164 510 445zm-192 2c1-178-126-288-307-289H361v571h345c196 1 318-92 318-282" id="x"/><path d="M561-1102c238-4 403 126 403 351v498c0 99 13 178 38 237V0H808c-11-21-19-59-26-114C696-25 593 20 474 20c-199 0-368-130-365-320 4-251 214-359 490-356h180v-85c-1-135-86-212-229-212-115 0-232 67-233 171H131c20-205 206-316 430-320zM294-326c0 117 90 185 207 185 122 0 239-75 278-162v-222H634c-227 0-340 66-340 199" id="y"/><path d="M456 20C285 20 205-92 206-268v-671H9v-143h197v-262h185v262h202v143H391v671c-9 125 92 149 207 118V0c-49 13-96 20-142 20" id="z"/><path d="M704-1390c-164-38-297 28-288 194v114h231v143H416V0H231v-939H60v-143h171v-111c-12-274 208-416 483-347" id="A"/><path d="M663-916c-163-27-288 18-338 148V0H140v-1082h180l3 125c61-97 147-145 258-145 36 0 63 5 82 14v172" id="B"/><path d="M1240-945c-141 0-250 95-250 227V0H804v-709c0-157-77-236-231-236-121 0-204 52-249 155V0H139v-1082h175l5 120c79-93 186-140 321-140 151 0 254 58 309 174 69-98 181-174 345-174 237 0 362 126 362 377V0h-185v-714c-2-159-67-231-231-231" id="C"/><g id="d"><use transform="matrix(0.0065107421875,0,0,0.0065107421875,0,0)" xlink:href="#x"/><use transform="matrix(0.0065107421875,0,0,0.0065107421875,8.41187890625,0)" xlink:href="#s"/><use transform="matrix(0.0065107421875,0,0,0.0065107421875,11.647717773437499,0)" xlink:href="#y"/><use transform="matrix(0.0065107421875,0,0,0.0065107421875,18.9006845703125,0)" xlink:href="#z"/><use transform="matrix(0.0065107421875,0,0,0.0065107421875,23.256371093749998,0)" xlink:href="#A"/><use transform="matrix(0.0065107421875,0,0,0.0065107421875,27.8855087890625,0)" xlink:href="#q"/><use transform="matrix(0.0065107421875,0,0,0.0065107421875,35.490055664062496,0)" xlink:href="#B"/><use transform="matrix(0.0065107421875,0,0,0.0065107421875,40.001999999999995,0)" xlink:href="#C"/></g><filter id="a" filterUnits="objectBoundingBox" x="-.01" y="0" width="1.01" height="1.01"><feOffset result="offOut" in="SourceAlpha" dy="1"/><feGaussianBlur result="blurOut" in="offOut" stdDeviation=".75"/><feColorMatrix result="colorOut" in="blurOut" values="0 0 0 0 0 0 0 0 0 0 0 0 0 0 0 0 0 0 0.4 0"/><feBlend in="SourceGraphic" in2="colorOut"/></filter><path d="M665-137c214 0 337-121 336-332v-987h193v990c-3 300-218 486-529 486-309 0-526-181-525-484v-992h190v986c-1 210 123 333 335 333" id="D"/><path d="M538-131c121 0 232-49 232-156 0-50-20-88-56-117-73-60-334-92-420-143-92-55-162-110-162-238 0-190 192-317 400-317 223 0 414 129 413 338H759c0-108-110-186-227-186-119 0-215 53-215 159 0 45 18 78 53 101 76 52 331 90 416 139 98 57 169 115 169 251C955-92 760 20 538 20c-176 0-314-68-386-174-38-55-57-115-57-179h185c6 129 116 202 258 202" id="E"/><g id="f"><use transform="matrix(0.0065107421875,0,0,0.0065107421875,0,0)" xlink:href="#D"/><use transform="matrix(0.0065107421875,0,0,0.0065107421875,8.646265625,0)" xlink:href="#E"/><use transform="matrix(0.0065107421875,0,0,0.0065107421875,15.521609374999999,0)" xlink:href="#t"/><use transform="matrix(0.0065107421875,0,0,0.0065107421875,22.5857646484375,0)" xlink:href="#B"/><use transform="matrix(0.0065107421875,0,0,0.0065107421875,27.097708984375,0)" xlink:href="#E"/></g><filter id="e" filterUnits="objectBoundingBox" x="-.02" y="0" width="1.03" height="1.02"><feOffset result="offOut" in="SourceAlpha" dy="1"/><feGaussianBlur result="blurOut" in="offOut" stdDeviation=".75"/><feColorMatrix result="colorOut" in="blurOut" values="0 0 0 0 0 0 0 0 0 0 0 0 0 0 0 0 0 0 0.4 0"/><feBlend in="SourceGraphic" in2="colorOut"/></filter><path d="M972-643H361V0H169v-1456h902v158H361v498h611v157" id="F"/><path d="M589-945c-131 0-219 81-264 174V0H140v-1082h175l6 136c83-104 191-156 324-156 229 0 346 129 346 387V0H806v-716c-2-153-65-229-217-229" id="G"/><g id="g"><use transform="matrix(0.0065107421875,0,0,0.0065107421875,0,0)" xlink:href="#F"/><use transform="matrix(0.0065107421875,0,0,0.0065107421875,7.200880859375,0)" xlink:href="#B"/><use transform="matrix(0.0065107421875,0,0,0.0065107421875,11.5826103515625,0)" xlink:href="#q"/><use transform="matrix(0.0065107421875,0,0,0.0065107421875,19.1871572265625,0)" xlink:href="#G"/><use transform="matrix(0.0065107421875,0,0,0.0065107421875,26.5442958984375,0)" xlink:href="#z"/><use transform="matrix(0.0065107421875,0,0,0.0065107421875,30.899982421875,0)" xlink:href="#t"/><use transform="matrix(0.0065107421875,0,0,0.0065107421875,37.9641376953125,0)" xlink:href="#G"/><use transform="matrix(0.0065107421875,0,0,0.0065107421875,45.3212763671875,0)" xlink:href="#w"/></g><path d="M631-137c179 0 314-70 314-231 0-71-25-127-75-166s-141-77-272-115c-165-47-285-106-360-175s-112-154-112-255c0-245 231-397 495-397 206 0 369 89 449 218 43 68 65 142 65 223H942c0-184-129-283-321-283-172 0-299 76-301 236 0 59 26 109 76 150s135 78 256 113c205 59 345 116 436 256 35 53 50 119 50 193-2 256-231 398-507 390C333 12 90-129 80-422h193c0 187 160 285 358 285" id="H"/><g id="h"><use transform="matrix(0.0065107421875,0,0,0.0065107421875,0,0)" xlink:href="#H"/><use transform="matrix(0.0065107421875,0,0,0.0065107421875,7.9105517578125,0)" xlink:href="#z"/><use transform="matrix(0.0065107421875,0,0,0.0065107421875,12.1360234375,0)" xlink:href="#q"/><use transform="matrix(0.0065107421875,0,0,0.0065107421875,19.7405703125,0)" xlink:href="#B"/><use transform="matrix(0.0065107421875,0,0,0.0065107421875,23.9920849609375,0)" xlink:href="#y"/><use transform="matrix(0.0065107421875,0,0,0.0065107421875,31.2450517578125,0)" xlink:href="#r"/><use transform="matrix(0.0065107421875,0,0,0.0065107421875,38.72589453125,0)" xlink:href="#t"/></g><g id="i"><use transform="matrix(0.0065107421875,0,0,0.0065107421875,0,0)" xlink:href="#p"/><use transform="matrix(0.0065107421875,0,0,0.0065107421875,9.0824853515625,0)" xlink:href="#x"/><use transform="matrix(0.0065107421875,0,0,0.0065107421875,17.4943642578125,0)" xlink:href="#D"/></g><path d="M973-380H363L226 0H28l556-1456h168L1309 0h-197zM421-538h495l-248-681" id="I"/><path d="M634-1102c292 0 422 254 422 573 0 298-143 547-420 549-137 0-242-48-317-145L310 0H140v-1536h185v573c75-93 178-139 309-139zm-44 965c207 0 281-175 281-413 0-224-79-395-283-395-122 0-210 57-263 170v468c57 113 145 170 265 170" id="J"/><g id="k"><use transform="matrix(0.0065107421875,0,0,0.0065107421875,0,0)" xlink:href="#I"/><use transform="matrix(0.0065107421875,0,0,0.0065107421875,8.6983515625,0)" xlink:href="#J"/><use transform="matrix(0.0065107421875,0,0,0.0065107421875,16.1791943359375,0)" xlink:href="#q"/><use transform="matrix(0.0065107421875,0,0,0.0065107421875,23.7837412109375,0)" xlink:href="#v"/><use transform="matrix(0.0065107421875,0,0,0.0065107421875,31.134369140624997,0)" xlink:href="#z"/></g><path d="M589-945c-131 0-219 81-264 174V0H140v-1536h185v585c82-101 189-151 320-151 229 0 346 129 346 387V0H806v-716c-2-153-65-229-217-229" id="K"/><g id="l"><use transform="matrix(0.0065107421875,0,0,0.0065107421875,0,0)" xlink:href="#z"/><use transform="matrix(0.0065107421875,0,0,0.0065107421875,4.3556865234375,0)" xlink:href="#K"/><use transform="matrix(0.0065107421875,0,0,0.0065107421875,11.6998037109375,0)" xlink:href="#t"/></g><path d="M341 0H156v-1082h185V0zm-91-1264c-68 0-108-42-109-105 0-62 41-107 109-107s110 44 110 107-42 105-110 105" id="L"/><g id="m"><use transform="matrix(0.0065107421875,0,0,0.0065107421875,0,0)" xlink:href="#y"/><use transform="matrix(0.0065107421875,0,0,0.0065107421875,7.252966796875,0)" xlink:href="#s"/><use transform="matrix(0.0065107421875,0,0,0.0065107421875,10.4888056640625,0)" xlink:href="#r"/><use transform="matrix(0.0065107421875,0,0,0.0065107421875,17.9696484375,0)" xlink:href="#q"/><use transform="matrix(0.0065107421875,0,0,0.0065107421875,25.5741953125,0)" xlink:href="#B"/><use transform="matrix(0.0065107421875,0,0,0.0065107421875,30.0861396484375,0)" xlink:href="#L"/><use transform="matrix(0.0065107421875,0,0,0.0065107421875,33.321978515625,0)" xlink:href="#z"/><use transform="matrix(0.0065107421875,0,0,0.0065107421875,37.6776650390625,0)" xlink:href="#K"/><use transform="matrix(0.0065107421875,0,0,0.0065107421875,45.02178222656249,0)" xlink:href="#C"/></g><filter id="j" filterUnits="objectBoundingBox" x="-.01" y="-.01" width="1.02" height="1.06"><feOffset result="offOut" in="SourceAlpha" dy="1"/><feGaussianBlur result="blurOut" in="offOut" stdDeviation=".75"/><feColorMatrix result="colorOut" in="blurOut" values="0 0 0 0 0 0 0 0 0 0 0 0 0 0 0 0 0 0 0.4 0"/><feBlend in="SourceGraphic" in2="colorOut"/></filter><path d="M277-555c0 244 77 420 297 424 127 2 249-93 255-210h175C980-127 805 20 574 20 258 20 81-222 92-562c11-319 164-533 481-540 237-5 426 165 431 392H829c-7-133-115-242-256-240-209 4-296 166-296 395" id="M"/><g id="n"><use transform="matrix(0.0065107421875,0,0,0.0065107421875,0,0)" xlink:href="#I"/><use transform="matrix(0.0065107421875,0,0,0.0065107421875,8.6983515625,0)" xlink:href="#M"/><use transform="matrix(0.0065107421875,0,0,0.0065107421875,15.6778671875,0)" xlink:href="#M"/><use transform="matrix(0.0065107421875,0,0,0.0065107421875,22.657382812499996,0)" xlink:href="#t"/><use transform="matrix(0.0065107421875,0,0,0.0065107421875,29.721538085937492,0)" xlink:href="#E"/><use transform="matrix(0.0065107421875,0,0,0.0065107421875,36.596881835937495,0)" xlink:href="#E"/></g><g id="o"><use transform="matrix(0.0065107421875,0,0,0.0065107421875,0,0)" xlink:href="#x"/><use transform="matrix(0.0065107421875,0,0,0.0065107421875,8.41187890625,0)" xlink:href="#B"/><use transform="matrix(0.0065107421875,0,0,0.0065107421875,12.800119140624998,0)" xlink:href="#t"/><use transform="matrix(0.0065107421875,0,0,0.0065107421875,19.8642744140625,0)" xlink:href="#w"/><use transform="matrix(0.0065107421875,0,0,0.0065107421875,27.384181640625,0)" xlink:href="#L"/><use transform="matrix(0.0065107421875,0,0,0.0065107421875,30.620020507812498,0)" xlink:href="#M"/><use transform="matrix(0.0065107421875,0,0,0.0065107421875,37.5995361328125,0)" xlink:href="#z"/><use transform="matrix(0.0065107421875,0,0,0.0065107421875,41.95522265625,0)" xlink:href="#L"/><use transform="matrix(0.0065107421875,0,0,0.0065107421875,45.1910615234375,0)" xlink:href="#q"/><use transform="matrix(0.0065107421875,0,0,0.0065107421875,52.795608398437494,0)" xlink:href="#G"/><use transform="matrix(0.0065107421875,0,0,0.0065107421875,60.1527470703125,0)" xlink:href="#E"/></g></defs></g></svg>